PathFileType	4	(X/Y/Z)	D:\TRACE\spotREDO_2-26-24\spot_justArm_Motion_2_5-v60.trc
DataRate	CameraRate	NumFrames	NumMarkers	Units	OrigDataRate	OrigDataStartFrame	OrigNumFrames
100.00	100.00	      34	9	mm	100.00	6126	      7000
Frame#	Time	front left toe			Front right toe			aft left toe			aft right toe			Arm			FL body			FR body			AL Body			AR Body			
		X1	Y1	Z1	X2	Y2	Z2	X3	Y3	Z3	X4	Y4	Z4	X5	Y5	Z5	X6	Y6	Z6	X7	Y7	Z7	X8	Y8	Z8	X9	Y9	Z9	

6126	61.250	-288.42471	4.75992	-136.32085	135.66898	8.06998	-144.18958	-323.86948	56.00586	455.81470	102.95762	59.86105	430.50348	-84.52242	627.17120	-837.02173	-169.85599	530.54590	-212.94395	-14.03729	534.86938	-206.63416	-214.48833	607.83856	667.05078	-67.12236	607.82233	674.49854	
6127	61.260	-287.71915	5.14594	-136.13832	137.21912	8.28704	-143.77483	-323.05759	55.72267	455.88303	104.08439	59.30882	430.77115	-83.32803	626.67371	-836.64856	-169.21761	530.29755	-213.10249	-13.50245	534.36249	-206.64580	-213.68684	608.03705	666.74927	-66.01431	608.04761	674.45068	
6128	61.270	-286.51657	5.28747	-136.16286	138.10922	8.79426	-143.20508	-321.91260	55.35883	456.10611	104.80659	58.82015	430.73190	-82.92963	626.15009	-836.86310	-168.46655	529.94537	-213.21730	-12.54003	533.81244	-206.76541	-213.12715	608.43463	666.51843	-65.34877	608.42072	674.24695	
6129	61.280	-285.62076	5.26276	-135.72504	138.46362	8.53047	-143.27449	-321.16693	54.91164	456.16342	106.22466	58.86727	431.00949	-82.47072	625.88245	-836.85535	-167.49060	529.36578	-213.35765	-12.20766	533.51459	-206.90250	-212.40437	608.62854	666.36206	-65.05038	608.58276	674.21198	
6130	61.290	-284.89612	5.63907	-135.57999	140.22699	10.07240	-142.65213	-319.83057	54.08970	456.40665	106.90353	57.99302	431.04099	-81.74225	625.05524	-836.90155	-166.79822	528.84924	-213.43396	-11.19588	532.77039	-207.08847	-211.65199	608.79950	666.19415	-64.20006	608.76111	673.88556	
6131	61.300	-283.87424	6.01250	-135.97557	141.47269	10.27913	-142.39651	-318.85892	53.54584	456.60501	107.97590	57.69134	431.17944	-81.37996	624.46649	-837.02954	-165.72717	528.11591	-213.25470	-10.48448	532.23273	-207.12173	-210.22705	609.53851	666.59894	-63.38089	609.19269	673.84753	
6132	61.310	-282.84296	6.11254	-135.07204	141.77203	10.00019	-142.62657	-318.06174	53.11283	456.72903	109.13975	57.13870	431.30328	-80.83277	623.58917	-836.98682	-164.85121	527.53113	-213.46477	-9.14742	531.88416	-207.12065	-210.60545	609.31195	665.69580	-62.56417	609.32605	673.66364	
6133	61.320	-280.55484	5.10988	-134.60965	143.09578	10.66238	-142.21663	-316.76529	52.37205	456.71924	109.92055	56.57935	431.37692	-80.08656	622.89203	-836.56604	-164.10580	527.00220	-213.67828	-8.41827	531.23926	-207.12309	-209.52295	609.64172	665.92853	-61.77027	609.52515	673.48242	
6134	61.330	-279.62280	5.30271	-134.40164	144.13557	10.66924	-142.04750	-315.92853	51.75204	457.08759	111.33478	56.19778	431.64523	-79.06161	621.89978	-835.05457	-162.99365	526.44934	-213.71451	-7.60694	530.68164	-207.21645	-208.42520	609.72931	665.76953	-61.43155	609.68658	673.37164	
6135	61.340	-278.47803	5.67623	-134.49512	145.07379	10.43293	-142.01352	-314.64056	51.01359	457.22000	112.01539	55.48398	431.76672	-79.45033	620.61298	-833.96100	-161.68053	526.04767	-213.79521	-5.90189	530.37946	-207.26512	-207.72141	609.75153	665.58270	-60.66629	609.89362	673.18683	
6136	61.350	-277.51434	5.95426	-134.30174	146.26994	11.05966	-141.65280	-313.91818	50.53585	457.40576	113.25416	55.10634	432.02005	-79.58678	619.27875	-831.94629	-160.37560	525.62177	-214.05222	-4.85407	530.01984	-207.35213	-207.17299	609.93005	665.27588	-59.84040	609.88879	673.07452	
6137	61.360	-276.21115	6.31135	-134.02660	147.69008	11.22702	-141.32191	-312.80005	49.80308	457.26285	114.30060	54.43488	432.32205	-80.58903	617.48907	-829.47748	-158.69800	525.38977	-214.43661	-3.32453	529.53241	-207.31717	-207.24371	609.15826	664.16071	-59.15169	609.73700	672.98126	
6138	61.370	-275.07062	6.71349	-134.05316	148.89746	11.14658	-141.10626	-311.58698	48.93749	457.34189	115.00826	54.00675	432.56021	-81.98782	615.37085	-826.62866	-156.92267	525.07556	-214.56410	-0.93721	529.43597	-207.52184	-206.78117	609.00000	663.63440	-58.93009	609.62372	672.88159	
6139	61.380	-273.99091	6.90635	-134.04897	149.88672	11.05682	-140.90329	-310.86966	48.11400	457.68988	116.57693	53.49715	432.93787	-84.18436	613.01135	-824.13940	-155.06061	525.27075	-214.88501	0.62836	529.05084	-207.25348	-206.36464	608.72522	663.21094	-58.71901	609.42871	672.80963	
6140	61.390	-272.63953	7.45064	-134.04308	151.09146	11.41197	-140.33186	-309.53537	47.24915	457.89963	117.04884	52.81273	433.29590	-85.47185	610.80859	-820.68225	-152.86311	525.15588	-215.04573	3.65418	529.11591	-207.19185	-205.96091	608.62866	662.86871	-58.15477	609.08423	672.77203	
6141	61.400	-271.29459	7.77518	-133.57448	152.24620	11.55509	-140.17039	-308.61368	46.49831	457.93860	117.96500	51.98613	433.49069	-90.44218	608.09229	-820.19299	-151.14600	525.10382	-215.36906	4.83895	528.93591	-207.35954	-205.34837	608.38721	662.77081	-57.66177	608.79736	672.73541	
6142	61.410	-270.05624	8.01949	-133.37801	153.68135	11.76554	-139.85880	-307.74149	45.77927	458.14920	119.45992	51.62739	433.82639	-94.43102	605.68585	-819.25867	-149.21849	524.96722	-215.40921	6.34153	528.78040	-207.44464	-204.55209	608.23804	662.53009	-56.72866	608.47467	672.69177	
6143	61.420	-269.09122	8.20726	-133.23813	154.78706	12.21307	-139.42619	-306.44489	44.86823	458.48596	120.01550	50.54059	433.97153	-98.36594	603.19629	-818.37152	-147.59355	524.75903	-215.24373	7.98668	528.32220	-206.80978	-203.28609	608.11743	662.40051	-55.14922	608.33862	672.98950	
6144	61.430	-267.97101	8.48245	-132.85587	155.33252	12.27433	-139.35178	-305.18347	44.13540	458.69019	121.65117	49.75387	434.22897	-102.50814	601.04504	-818.06299	-146.51939	524.73553	-215.46452	9.19203	528.21429	-207.13257	-203.47452	608.70941	663.04913	-53.59800	608.14661	672.99841	
6145	61.440	-266.88464	8.69258	-132.49162	156.63753	12.80615	-138.90515	-303.95334	43.68672	458.82797	122.80193	49.03139	434.34930	-106.37368	599.19568	-817.49066	-145.76451	524.47308	-215.24924	10.03782	527.72998	-207.31987	-201.22897	608.60449	663.05591	-51.70143	607.93146	672.80457	
6146	61.450	-266.12009	8.71119	-132.34787	157.63161	13.31906	-138.78430	-302.66351	42.95412	459.34506	124.37042	48.21365	434.60608	-109.69817	597.62085	-817.44324	-145.28737	523.94769	-215.05191	10.26910	527.32123	-207.52582	-198.95212	608.79919	663.17157	-49.22642	608.02148	672.52655	
6147	61.460	-265.13062	8.47250	-131.74390	158.55331	14.27922	-138.47775	-301.25244	42.33139	459.65585	125.27428	46.93314	434.66089	-112.23002	596.25275	-817.29364	-145.12794	523.41821	-214.70132	10.33185	526.89111	-207.94061	-194.43466	608.23700	663.42657	-46.79629	607.85376	672.41376	
6148	61.470	-264.15891	8.53713	-130.86606	159.20200	14.30207	-138.83557	-299.65967	41.74468	460.09274	126.90571	46.36020	434.69467	-114.27924	595.53833	-817.62585	-145.37566	523.08038	-214.58189	10.14949	526.34338	-208.36574	-191.23645	608.94263	664.32086	-43.54316	607.75006	672.23895	
6149	61.480	-263.82501	8.96462	-130.57562	159.75885	14.75054	-138.64868	-298.43646	41.10018	460.65198	128.19611	45.43454	434.75400	-115.24870	594.92896	-817.51874	-145.67934	522.80536	-214.15794	10.00517	525.73047	-208.55049	-188.35057	608.94513	664.64905	-40.55321	607.73950	672.31073	
6150	61.490	-262.67337	9.05705	-130.14441	160.81506	15.39028	-138.52145	-297.04733	40.69469	460.94574	129.68517	44.38848	435.01770	-115.31512	594.65399	-817.47308	-146.25021	522.25146	-213.69450	9.65346	525.03418	-208.39142	-185.58217	608.41040	664.44672	-37.84483	607.69659	672.16974	
6151	61.500	-261.71378	9.10848	-129.65927	161.76915	15.86219	-138.59825	-295.67496	39.72483	461.09061	131.25859	43.55289	435.10889	-114.57527	594.56763	-817.65381	-146.82146	521.91864	-213.57755	9.23720	524.77795	-209.06631	-182.59268	608.72437	665.67426	-35.16612	607.38794	672.05133	
6152	61.510	-260.80527	9.29249	-129.28708	162.55937	16.20437	-138.65750	-294.28165	38.69782	461.83511	132.14931	42.54592	435.17935	-112.90173	594.61975	-817.57428	-146.67540	521.48743	-213.13991	9.07767	524.58325	-209.03902	-180.63876	608.09863	665.83795	-32.83632	607.26880	672.17804	
6153	61.520	-259.45193	9.60417	-128.66580	163.71771	16.68237	-138.30272	-293.15759	37.96093	462.04132	133.69208	41.64663	435.51721	-110.54826	594.51697	-817.56726	-146.83633	521.40643	-213.04848	9.13131	524.46869	-209.06709	-178.66553	607.34192	665.95544	-30.66141	606.58966	672.33148	
6154	61.530	-258.47641	9.87589	-128.38654	164.51408	17.00105	-137.99641	-291.93768	36.87816	462.35474	134.54158	40.70386	435.60999	-107.36283	594.89105	-817.46198	-146.52544	521.35590	-212.67993	9.28536	524.45203	-209.01730	-176.81664	607.25208	666.93744	-29.25424	606.28680	672.33545	
6155	61.540	-257.49301	10.29694	-128.18846	165.64113	17.22323	-137.79901	-290.98135	36.20075	462.75983	135.63098	39.98214	436.01755	-104.05224	595.36450	-817.30133	-146.06961	521.31964	-212.31567	9.69222	524.47485	-208.97737	-175.34860	606.50018	667.24719	-27.52055	605.58093	672.59253	
6156	61.550	-256.20068	10.80144	-128.06319	167.29614	17.56565	-137.24615	-290.24567	35.24513	463.00998	136.71289	39.16831	436.35339	-100.44891	596.02069	-817.50110	-145.25189	521.46265	-212.06277	10.49030	524.64679	-208.77811	-174.56267	605.88934	667.45807	-26.78847	604.84302	672.83081	
6157	61.560	-255.04950	11.14909	-127.37259	168.37631	17.76541	-137.16898	-289.12405	33.81444	463.49606	137.68048	38.48166	436.72583	-96.28470	596.33771	-817.13544	-144.26694	521.80664	-211.91359	11.69035	524.85999	-208.46129	-174.07680	604.93799	667.79657	-26.27808	603.92590	673.15552	
6158	61.570	-253.70061	11.74090	-127.71236	170.00342	18.11106	-136.48370	-287.95575	32.73119	463.77881	138.91646	37.75920	437.10413	-92.17679	596.96082	-817.18945	-142.82901	522.01385	-211.93445	12.95295	525.14288	-208.09895	-173.85280	604.22650	667.79993	-26.13019	602.97437	673.57501	
6159	61.580	-252.55927	11.88432	-126.97507	170.74460	18.34178	-136.12222	-286.99130	31.39429	464.25607	139.69763	36.75132	437.51096	-88.09713	597.72192	-816.82245	-141.38011	522.40466	-211.68990	14.49749	525.02887	-207.40872	-173.89064	603.14612	668.23755	-26.05678	602.29211	674.11389	
